<?xml version="1.0" encoding="UTF-8" standalone="no"?> <svg xmlns="http://www.w3.org/2000/svg" viewBox="0 0 48 48"><g id="Frying_Pan" data-name="Frying Pan"><path d="M45,18H36a2,2,0,0,0-2,2H31a.984.984,0,0,0-.242.03l-2.786.7A2,2,0,0,0,26,19H2a2,2,0,0,0-2,2,8.009,8.009,0,0,0,8,8H20a8.007,8.007,0,0,0,7.779-6.164L31.123,22H34a2,2,0,0,0,2,2h9a3,3,0,0,0,0-6ZM20,27H8a6.006,6.006,0,0,1-6-6H26A6.006,6.006,0,0,1,20,27Zm25-5H36V20h9a1,1,0,0,1,0,2Z"/><path d="M13.144,16.517a1,1,0,0,0,1.712-1.034,3.253,3.253,0,0,1,0-2.966,5.277,5.277,0,0,0,0-5.034,1,1,0,0,0-1.712,1.034,3.253,3.253,0,0,1,0,2.966A5.277,5.277,0,0,0,13.144,16.517Z"/><path d="M6.644,16.517a1,1,0,0,0,1.712-1.034,3.253,3.253,0,0,1,0-2.966,5.277,5.277,0,0,0,0-5.034A1,1,0,1,0,6.644,8.517a3.253,3.253,0,0,1,0,2.966A5.277,5.277,0,0,0,6.644,16.517Z"/><path d="M19.644,16.517a1,1,0,1,0,1.712-1.034,3.253,3.253,0,0,1,0-2.966,5.277,5.277,0,0,0,0-5.034,1,1,0,1,0-1.712,1.034,3.253,3.253,0,0,1,0,2.966A5.277,5.277,0,0,0,19.644,16.517Z"/><path d="M17,36c0-2.347-2.059-4.473-2.293-4.707a1,1,0,0,0-1.414,0C13.059,31.527,11,33.653,11,36a3,3,0,0,0,6,0Zm-3,1a1,1,0,0,1-1-1,4.647,4.647,0,0,1,1-2.439A4.647,4.647,0,0,1,15,36,1,1,0,0,1,14,37Z"/><path d="M10,36c0-2.347-2.059-4.473-2.293-4.707a1,1,0,0,0-1.414,0C6.059,31.527,4,33.653,4,36a3,3,0,0,0,6,0ZM7,37a1,1,0,0,1-1-1,4.647,4.647,0,0,1,1-2.439A4.647,4.647,0,0,1,8,36,1,1,0,0,1,7,37Z"/><path d="M24,36c0-2.347-2.059-4.473-2.293-4.707a1,1,0,0,0-1.414,0C20.059,31.527,18,33.653,18,36a3,3,0,0,0,6,0Zm-3,1a1,1,0,0,1-1-1,4.647,4.647,0,0,1,1-2.439A4.647,4.647,0,0,1,22,36,1,1,0,0,1,21,37Z"/><path d="M25,39H3a1,1,0,0,0,0,2H25a1,1,0,0,0,0-2Z"/></g></svg>