<?xml version="1.0" encoding="UTF-8" standalone="no"?> <svg id="fill" xmlns="http://www.w3.org/2000/svg" viewBox="0 0 340 340"><title>farming tool</title><path d="M247.9,50.357a3.823,3.823,0,0,0,.316-.345c10.478-12.938,3.112-27.511,2.793-28.125a4,4,0,0,0-6.343-1.021L185.492,78.589a25.337,25.337,0,0,0-.444,35.788l7.591,7.783L181,133.515a15.6,15.6,0,0,0-3.117,17.967L150.6,178.1l-21.641-22.185a15.555,15.555,0,0,0-2.673-18.042l-8.606-8.822.536-.523a26.555,26.555,0,0,0,.466-37.553L97.1,68.857A47.108,47.108,0,0,0,66.5,54.685c-11.825-.79-29.823-.546-48.436,5.091a4,4,0,0,0-2.64,2.575c-6.1,18.468-6.786,36.457-6.29,48.294a47.1,47.1,0,0,0,13.409,30.947l21.574,22.116a26.588,26.588,0,0,0,37.554.466l.536-.523,8.606,8.822a15.469,15.469,0,0,0,10.956,4.7l.2,0a15.486,15.486,0,0,0,6.815-1.581l21.642,22.186L29.64,296.093a14.091,14.091,0,0,0,19.678,20.173l91.693-89.445a4,4,0,0,0-5.586-5.727L43.732,310.54a5.983,5.983,0,0,1-4.329,1.73,6.091,6.091,0,0,1-4.177-10.451L136.01,203.505,245.4,315.643a14,14,0,0,0,9.913,4.25l.179,0a14.092,14.092,0,0,0,10.081-23.931l-95.3-97.691,27.284-26.616a15.583,15.583,0,0,0,18.041-2.672l11.714-11.427,7.518,7.853a25.337,25.337,0,0,0,35.788.444l59.173-57.723a4,4,0,0,0-.863-6.366c-.606-.334-14.993-8.059-28.186,2.094a3.981,3.981,0,0,0-.353.307l-40.252,39.266a4.028,4.028,0,0,1-2.952,1.18,4.155,4.155,0,0,1-2.85-7.128l53.336-52.028a4,4,0,0,0-.8-6.331c-.635-.365-15.7-8.832-28.938,1.353a3.994,3.994,0,0,0-.354.307l-40.252,39.266a4.175,4.175,0,0,1-2.952,1.18,4.128,4.128,0,0,1-2.923-1.253l-1.073-1.1a4.153,4.153,0,0,1,.072-5.874l40.252-39.266a3.963,3.963,0,0,0,.315-.346c10.512-12.979,2.421-28.252,2.072-28.895a4,4,0,0,0-6.309-.955L213.449,95.571a4.177,4.177,0,0,1-2.952,1.18,4.155,4.155,0,0,1-2.85-7.127ZM107.25,167.02a7.575,7.575,0,0,1-10.712-.133l-8.6-8.822,13.713-13.377a4,4,0,0,0-5.588-5.725L76.084,158.448a18.579,18.579,0,0,1-26.241-.325L28.269,136.006a39.108,39.108,0,0,1-11.144-25.695,131.486,131.486,0,0,1,5.26-43.464,131.414,131.414,0,0,1,43.581-4.18A39.12,39.12,0,0,1,91.377,74.443L112.951,96.56a18.555,18.555,0,0,1-.325,26.241l-3.4,3.316a4,4,0,0,0-.071,5.656l11.4,11.685a7.584,7.584,0,0,1-.129,10.708l-6.591,6.429Zm152.6,134.53a6.1,6.1,0,0,1-.107,8.613,6.2,6.2,0,0,1-4.329,1.731,6.053,6.053,0,0,1-4.284-1.837L139.546,195.673a4.068,4.068,0,0,0-.532-.687,4,4,0,0,0-.674-.548l-23.277-23.863,4.359-4.253,4.36-4.253Zm-95.158-109-8.507-8.72,26.714-26.06,4.254,4.36,4.254,4.36Zm37.16-91.462a12.166,12.166,0,0,0,17.186.213L267.9,53.625a17.088,17.088,0,0,1-2.961,14.559l-40.075,39.093a12.154,12.154,0,0,0-.213,17.187l1.074,1.1a12.153,12.153,0,0,0,17.187.214l40.075-39.094a17.1,17.1,0,0,1,14.629-2.6l-48.87,47.673a12.154,12.154,0,0,0,16.974,17.4L305.8,110.065a17.242,17.242,0,0,1,13.735-3.1l-54.5,53.166a17.319,17.319,0,0,1-24.449-.276L230.3,149.108a4,4,0,0,0-5.655-.124c-.025.024-.041.052-.065.076s-.043.031-.062.05l-14.5,14.148a7.572,7.572,0,0,1-10.7-.123l-12.86-13.182a7.584,7.584,0,0,1,.133-10.712l11.641-11.355,13.5,13.837a4,4,0,1,0,5.726-5.586l-16.289-16.7h0l0,0-10.383-10.643a17.33,17.33,0,0,1,.3-24.477l54.5-53.165A17.241,17.241,0,0,1,242.138,44.8L202.062,83.9a12.154,12.154,0,0,0-.213,17.187Z"/><path d="M92.7,92.4A53.557,53.557,0,0,0,75.994,80.781a4,4,0,1,0-3.242,7.313,45.583,45.583,0,0,1,14.222,9.888l4.495,4.608a10.258,10.258,0,0,1-.18,14.489l-10.2,9.948-10.2,9.948A10.261,10.261,0,0,1,56.4,136.8l-4.495-4.608a45.606,45.606,0,0,1-9.531-14.462,4,4,0,0,0-7.393,3.059,53.574,53.574,0,0,0,11.2,16.989l4.495,4.608a18.268,18.268,0,0,0,25.8.32l10.2-9.948,10.2-9.948A18.266,18.266,0,0,0,97.2,97Z"/><path d="M55.92,81.87a3.828,3.828,0,0,0,.37.69,4.093,4.093,0,0,0,.49.61,4.919,4.919,0,0,0,.61.5,4.478,4.478,0,0,0,.69.36,3.791,3.791,0,0,0,.75.23,4.127,4.127,0,0,0,.779.08,4,4,0,0,0,2.83-6.83,4.215,4.215,0,0,0-.609-.5,4.571,4.571,0,0,0-.69-.36,3.875,3.875,0,0,0-.75-.23,4.093,4.093,0,0,0-1.56,0,3.791,3.791,0,0,0-.75.23,4.478,4.478,0,0,0-.69.36,4.919,4.919,0,0,0-.61.5,4.066,4.066,0,0,0-1.171,2.83,4.213,4.213,0,0,0,.08.78A3.835,3.835,0,0,0,55.92,81.87Z"/></svg>