<?xml version="1.0" encoding="utf-8"?>
<!-- Generator: Adobe Illustrator 23.0.2, SVG Export Plug-In . SVG Version: 6.00 Build 0)  -->
<svg version="1.1" id="Layer_1" xmlns="http://www.w3.org/2000/svg" xmlns:xlink="http://www.w3.org/1999/xlink" x="0px" y="0px"
	 viewBox="0 0 632.3281 303.6376" enable-background="new 0 0 632.3281 303.6376" xml:space="preserve">
<g>
	<path d="M259.7617,160.7245l-2.4089-1.197c-2.4063-1.1948-4.2266-3.2476-5.124-5.7798l-11-30.9995
		c-0.9199-2.5928-0.7754-5.3887,0.4082-7.8726c1.1826-2.4844,3.2617-4.3589,5.8545-5.2788
		c1.1133-0.3945,2.2715-0.5942,3.4424-0.5942c4.3525,0,8.2539,2.7559,9.709,6.8569l4.6975,13.2389
		c0.3689-1.8151,0.7249-3.5654,1.0496-5.2247c2.8303-9.8151-0.7874-21.5323-9.0784-23.8922
		c0.0004-0.0081,0.0011-0.0259,0.0011-0.0259s-1.6035-1.1462-4.3344-2.8596c-13.6106-8.5394-55.3748-31.2418-67.8982,2.8126
		c-7.6182,20.7159,10.6083,32.5023,15.0009,30.9257c2.8306-1.0159-8.7135,8.7187-10.3959,23.3423
		C212.5718,156.9227,236.209,159.22,259.7617,160.7245z M222.9846,109.3897c1.5677,4.3677-0.7009,9.1767-5.0686,10.7444
		c-4.3678,1.5677-9.1768-0.7009-10.7444-5.0686c-1.5677-4.3678,0.7008-9.1767,5.0686-10.7444
		C216.608,102.7534,221.417,105.0219,222.9846,109.3897z M197.0049,114.3724c-2.7004-7.5233,1.2103-15.8018,8.7307-18.5011
		c5.5559-1.9941,11.5209-0.3779,15.3506,3.6318l-0.8015,1.7237c-3.1339-2.1972-7.2467-2.8987-11.1227-1.5074
		c-6.3375,2.2747-9.6298,9.2616-7.3571,15.5936c1.4091,3.9255,4.6205,6.6763,8.3645,7.6678l-0.4387,0.9434
		C204.1387,123.577,199.0188,119.9832,197.0049,114.3724z"/>
	<path d="M243.8352,196.1667l27.3789,24.0697l7.0713,55.6431c0.8027,6.314,6.1826,10.9263,12.3848,10.9258
		c0.5254,0,1.0566-0.0332,1.5918-0.1011c6.8477-0.8706,11.6943-7.1274,10.8242-13.9761l-7.667-60.3335
		c-0.3838-3.0225-1.8594-5.8008-4.1475-7.8125l-30.0771-26.4414c-0.0049-0.9302-0.0356-1.9236-0.0996-3.0034
		c-0.1025-0.7649-0.1744-1.5417-0.2495-2.3174c-23.5448-1.4607-47.1698-3.7114-70.0673-6.4166
		c1.4784,4.9142,4.3414,10.1178,9.2045,15.4645c11.3882,12.5212,22.9532,16.7072,32.3845,16.6628l1.2588,28.3423l-26.8652,35.3584
		c-4.1768,5.4971-3.1064,13.3389,2.3906,17.5156c2.2607,1.7178,4.917,2.5479,7.5527,2.5479c3.7734,0,7.5039-1.7021,9.9629-4.9385
		l29.6006-38.959c1.7676-2.3262,2.6641-5.1982,2.5342-8.1172l-0.8271-18.6207l-16.5645-14.5621
		C242.2559,196.8195,243.0648,196.5074,243.8352,196.1667z"/>
	<path d="M614.4736,255.8026l2.1699,9.7617c9.9365-2.209,15.6289-3.5889,15.6846-3.6025l-2.3594-9.7168
		C629.9131,252.2577,624.3037,253.618,614.4736,255.8026z"/>
	<path d="M390.1113,290.4969l0.7871,9.9688c10.6973-0.8447,21.8428-1.877,33.127-3.0654l-1.0488-9.9453
		C411.7793,288.6346,400.7217,289.6581,390.1113,290.4969z"/>
	<path d="M480.3467,280.2665l1.4238,9.8984c10.7686-1.5498,21.8232-3.249,32.8594-5.0498l-1.6113-9.8691
		C502.0449,277.037,491.0527,278.7264,480.3467,280.2665z"/>
	<path d="M72.3379,277.1434c10.8887,2.0488,21.8975,4.0225,32.7207,5.8643l1.6777-9.8574
		c-10.7656-1.833-21.7168-3.7959-32.5488-5.835L72.3379,277.1434z"/>
	<path d="M207.959,297.3632c11.2637,1.1895,22.4121,2.2246,33.1357,3.0762l0.791-9.9688
		c-10.6367-0.8447-21.6982-1.8721-32.876-3.0527L207.959,297.3632z"/>
	<path d="M253.5537,301.3612c11.4014,0.7783,22.5928,1.3643,33.2627,1.7412l0.3535-9.9941
		c-10.5615-0.373-21.6426-0.9521-32.9346-1.7236L253.5537,301.3612z"/>
	<path d="M0,261.9618c0.0566,0.0137,5.749,1.3936,15.6855,3.6025l2.1699-9.7617c-9.8301-2.1846-15.4404-3.5449-15.4961-3.5576
		L0,261.9618z"/>
	<path d="M280.0961,170.8285l-13.4419-6.6792c-30.6378-1.7454-61.5404-4.8875-90.8839-8.6719
		c-0.1104-1.3669-0.1694-2.1296-0.1746-2.1982c-0.0245-0.3206-0.1135-0.6191-0.2454-0.8916
		c-0.4344-0.8976-1.3828-1.4844-2.4392-1.4102c-0.6888,0.0532-1.2911,0.3811-1.7078,0.8679
		c-0.4158,0.4855-0.6467,1.1292-0.594,1.8167c0.0037,0.0485,0.0348,0.4487,0.0909,1.1539
		c-21.5399-2.8486-42.1698-6.0236-61.1538-9.2203c0.0273-0.4026,0.0453-0.637,0.0482-0.6719
		c0.1113-1.376-0.9131-2.582-2.2891-2.6943c-1.375-0.1133-2.582,0.9111-2.6953,2.2881c-0.0016,0.0195-0.0081,0.1008-0.0178,0.2368
		c-29.626-5.0698-54.9529-10.1266-73.0447-13.9579c0.0264-0.3738,0.0433-0.5892,0.0459-0.6207
		c0.1133-1.376-0.9102-2.583-2.2861-2.6963c-1.3433-0.1117-2.5676,0.899-2.6923,2.2647
		c-15.3397-3.2969-24.3422-5.4627-24.7277-5.5562l-1.416,5.8301c0.3948,0.096,9.7996,2.3588,25.7787,5.7833
		c-0.0446,0.9149-0.0905,1.933-0.1356,3.0429c-0.7528,18.4912-1.3357,63.6018,6.7065,120.1995
		c-1.0698-0.2271-2.1537-0.4531-3.2148-0.6804l-2.0938,9.7793c10.5244,2.2529,21.4863,4.4922,32.5811,6.6543l1.9141-9.8145
		c-8.1069-1.5803-16.1375-3.2017-23.9789-4.8391c-8.144-56.2605-7.688-101.2855-6.9536-120.2449
		c0.0427-1.1033,0.0863-2.1194,0.1293-3.0432c18.2346,3.8508,43.5403,8.8867,73.063,13.927
		c-0.0381,0.9191-0.0754,1.9294-0.1104,3.0332c-0.6451,20.3558-0.4131,71.3766,14.1602,125.3525l-0.9629,5.8906
		c11.0176,1.8008,22.0723,3.502,32.8594,5.0566l1.4258-9.8984c-9.5435-1.3757-19.299-2.8713-29.0515-4.4443
		c-13.7119-52.0369-14.0586-100.9316-13.4561-121.1157c0.0327-1.0945,0.0679-2.1113,0.1041-3.033
		c19.2378,3.2317,40.1442,6.4374,61.9666,9.3054c0.079,0.9382,0.1663,1.9648,0.2609,3.0671
		c1.7803,20.7512,6.3162,69.8657,13.3358,120.6478c-6.892-0.8466-13.8722-1.7467-20.8864-2.7037l-1.3516,9.9082
		c11.1563,1.5225,22.2578,2.9189,32.9971,4.1494l1.1387-9.9355c-2.2372-0.2562-4.4983-0.5237-6.7646-0.7942
		c-6.988-50.2764-11.5408-99.1465-13.3936-120.615c-0.0942-1.0912-0.1821-2.1191-0.2625-3.0652
		C209.7832,165.8817,245.2828,169.3309,280.0961,170.8285z"/>
	<path d="M305.7454,163.1398l-37.3525-18.5605l-9.918-27.9506c-1.4766-4.1631-6.0498-6.3389-10.2139-4.8643
		c-4.1641,1.4775-6.3418,6.0508-4.8643,10.2148l11,30.9999c0.6934,1.9561,2.1201,3.5654,3.9795,4.4888l40.25,20
		c1.1436,0.5684,2.3574,0.8379,3.5537,0.8379c2.9414,0,5.7725-1.6289,7.1699-4.4419
		C311.3167,169.9069,309.7024,165.1056,305.7454,163.1398z"/>
	<path d="M620.5947,132.6174c7.0393-1.5826,11.0083-2.5378,11.2617-2.5995l-1.416-5.8301
		c-0.2384,0.0578-3.7739,0.9086-10.0629,2.3286c-0.3473-1.0202-1.3334-1.7374-2.4449-1.7109
		c-1.3799,0.0479-2.46,1.2051-2.4111,2.585c0.0006,0.0182,0.0029,0.095,0.0062,0.2112
		c-13.661,3.0303-35.9432,7.7576-63.6504,12.8626c-0.441-0.4458-1.0471-0.7294-1.724-0.7428
		c-1.0281-0.0537-1.9374,0.5803-2.3358,1.4868c-22.4799,4.0924-48.3058,8.3835-75.8632,12.2076
		c-0.2529-1.1146-1.2465-1.9454-2.4348-1.9454c-0.0059,0-0.0117,0-0.0176,0c-1.3809,0.0098-2.4922,1.1377-2.4824,2.5176
		c0,0.012,0.0002,0.051,0.0005,0.105c-23.2253,3.1512-47.5952,5.9473-72.168,7.9982c0.0002-0.0618,0.0005-0.108,0.0005-0.1207
		c0-1.3809-1.1191-2.5-2.5-2.5s-2.5,1.1191-2.5,2.5c0,0.0308-0.0005,0.2104-0.0037,0.5273
		c-19.3403,1.5317-38.7649,2.5859-57.8164,2.9734c-0.3445-0.9706-1.2612-1.6677-2.3469-1.6677c-0.0068,0-0.0146,0-0.0215,0
		c-1.1101,0.0094-2.0337,0.7462-2.3514,1.7498c-3.733,0.0542-7.4509,0.0837-11.1486,0.0837c-1.6016,0-3.2078-0.0071-4.8164-0.0173
		c0.2294,0.4507,0.4377,0.9144,0.6018,1.4023c0.5061,1.5067,0.6443,3.0737,0.4446,4.6047c1.2587,0.0062,2.5156,0.0103,3.77,0.0103
		c3.6576,0,7.335-0.0286,11.0267-0.0813c-0.0063,0.9955-0.0172,1.9963-0.0315,3.001
		c-0.6666,46.7308-9.8409,102.9131-12.6454,119.0763c-4.8986-0.0107-9.9277-0.067-14.9905-0.1742l-0.2109,9.998
		c5.7012,0.1201,11.3711,0.1807,16.8535,0.1807c5.3936-0.001,10.9434-0.0596,16.4961-0.1738l-0.207-9.998
		c-4.3159,0.0891-8.6276,0.1426-12.866,0.1622c2.9918-17.3691,11.9265-72.8387,12.5721-119.1575
		c0.014-1.005,0.0238-2.0055,0.0299-3.0013c18.9585-0.387,38.2809-1.4302,57.522-2.9448c-0.0291,0.9171-0.0651,1.9282-0.1078,3.0208
		c-0.7811,19.9636-4.0355,68.5012-17.556,120.228c-9.2957,0.583-18.4407,1.0406-27.2407,1.3479l0.3496,9.9941
		c10.71-0.374,21.9102-0.957,33.2891-1.7324l-0.6797-9.9766c-0.1553,0.0105-0.3085,0.0193-0.4636,0.0298
		c13.4052-52.0349,16.5725-100.6456,17.3187-120.2939c0.0419-1.1019,0.0758-2.1064,0.1038-3.0217
		c24.582-2.0398,48.9644-4.8245,72.2159-7.9664c-0.0205,0.921-0.0464,1.9368-0.0791,3.0455
		c-0.5881,19.9683-3.3699,69.603-16.4241,121.0872c-5.103,0.6367-10.1666,1.2451-15.1501,1.8149l1.1367,9.9355
		c4.5774-0.5233,9.2266-1.0823,13.9061-1.662c0.0079,0.0023,0.0146,0.0065,0.0226,0.0087c0.2197,0.0596,0.4404,0.0879,0.6572,0.0879
		c0.4387,0,0.8601-0.1206,1.2307-0.3311c5.6885-0.7122,11.4275-1.4611,17.1794-2.2451l-1.3496-9.9082
		c-4.1157,0.5609-8.2186,1.0981-12.3074,1.6226c12.9309-51.9541,15.5806-101.6814,16.1188-121.0947
		c0.031-1.1188,0.0551-2.1339,0.0736-3.0459c27.3696-3.7842,53.0488-8.0315,75.4863-12.0981
		c-0.0327,0.9143-0.0715,1.9419-0.1172,3.0781c-0.7583,18.8896-3.4146,67.679-11.8772,120.9917
		c-3.4138,0.6-6.8198,1.1924-10.2012,1.7671l1.6758,9.8594c10.7949-1.8359,21.8027-3.8066,32.7188-5.8584l-1.8477-9.8281
		c-5.7019,1.0718-11.4277,2.1195-17.1364,3.1392c8.4551-53.9551,11.0121-103.0122,11.7072-120.9893
		c0.0449-1.1589,0.0819-2.1854,0.1123-3.079c27.1987-5.0033,49.2311-9.6534,63.1221-12.7214
		c0.0012,0.9329-0.001,1.9562-0.0085,3.0765c-0.1367,20.2089-1.981,70.1316-15.3983,122.0933
		c-9.8134,2.0844-19.9574,4.1509-30.2167,6.1487l1.9121,9.8164c11.0762-2.1572,22.0381-4.3936,32.5791-6.6475l-0.699-3.2708
		c14.9602-55.1262,16.7419-108.9531,16.8257-129.2529C620.5991,134.5614,620.5986,133.5356,620.5947,132.6174z"/>
	<path d="M422.2041,99.7361c1.5972-2.7256,6.5902-9.3654,12.6798-8.045c-6.4819-7.2954-13.7648,3.8422-13.7648,3.8422
		s-11.7607-6.2241-13.9038,3.2973C411.9053,94.7278,419.4885,98.1243,422.2041,99.7361z"/>
	<path d="M435.2302,110.8771c4.6898-4.1054,12.2722-0.707,14.9886,0.9065c1.5963-2.7265,6.5902-9.3672,12.6788-8.0458
		c-6.481-7.2964-13.7638,3.8411-13.7638,3.8411S437.3713,101.3559,435.2302,110.8771z"/>
	<path d="M453.6163,75.3622c0,0-11.7626-6.2231-13.9037,3.2982c4.6908-4.1036,12.2722-0.707,14.9886,0.9065
		c1.5956-2.7265,6.5884-9.3681,12.6798-8.0449C460.8992,64.2238,453.6163,75.3622,453.6163,75.3622z"/>
	<path d="M461.2496,20c0,11.0468,8.9541,20,20,20c11.0448,0,20-8.9532,20-20c0-11.045-8.9552-20-20-20
		C470.2037,0,461.2496,8.955,461.2496,20z M481.2496,3.8105c8.9248,0,16.1875,7.2637,16.1875,16.1934
		c0,8.9257-7.2627,16.1836-16.1875,16.1836c-8.9287,0-16.1886-7.2579-16.1886-16.1836
		C465.061,11.0742,472.3209,3.8105,481.2496,3.8105z"/>
	<path d="M311.0361,153.8407c-2.749-1.0537-5.4365,0.1875-5.5498,0.2402c-0.4971,0.2354-0.709,0.8281-0.4766,1.3271
		c0.2334,0.498,0.8242,0.7139,1.3281,0.4834c0.0205-0.0098,2.0508-0.9316,3.999-0.1768c1.2461,0.4834,2.2305,1.5684,2.9268,3.2266
		c0.1611,0.3818,0.5313,0.6123,0.9219,0.6123c0.1299,0,0.2607-0.0254,0.3877-0.0781c0.5088-0.2139,0.748-0.7998,0.5342-1.3096
		C314.1885,155.9794,312.8193,154.5243,311.0361,153.8407z"/>
	<path d="M318.082,157.3856c0.1172,0,0.2363-0.0205,0.3516-0.0635c0.5176-0.1943,0.7783-0.7715,0.585-1.2881
		c-1.2432-3.3096-3.1816-5.5576-5.7607-6.6836c-3.9238-1.7148-7.8535-0.1465-8.0186-0.0781c-0.5098,0.209-0.7539,0.79-0.5469,1.3008
		c0.208,0.5107,0.793,0.7539,1.3018,0.5518c0.0332-0.0137,3.3438-1.3145,6.4814,0.0664c2.0566,0.9043,3.627,2.7705,4.6699,5.5459
		C317.2969,157.1385,317.6777,157.3856,318.082,157.3856z"/>
	<path d="M202.3242,255.2606c-2.2861,0.6357-3.9033,1.8105-4.8066,3.4932c-1.3936,2.5977-0.502,5.415-0.4639,5.5342
		c0.1377,0.4219,0.5283,0.6885,0.9492,0.6885c0.1016,0,0.2051-0.0156,0.3066-0.0479c0.5244-0.168,0.8135-0.7305,0.6475-1.2559
		c-0.0068-0.0215-0.6631-2.1543,0.3311-3.9893c0.6367-1.1748,1.8389-2.0137,3.5713-2.4951
		c0.5322-0.1484,0.8438-0.6992,0.6963-1.2314S202.8555,255.1171,202.3242,255.2606z"/>
	<path d="M201.1641,253.0585c0.5371-0.127,0.8701-0.665,0.7422-1.2031c-0.127-0.5371-0.668-0.8721-1.2031-0.7422
		c-3.4395,0.8135-5.915,2.4512-7.3584,4.8662c-2.1973,3.6768-1.1396,7.7725-1.0928,7.9443
		c0.1191,0.4473,0.5234,0.7422,0.9648,0.7422c0.0859,0,0.1729-0.0107,0.2588-0.0342c0.5342-0.1426,0.8506-0.6904,0.708-1.2236
		c-0.0088-0.0342-0.8906-3.4443,0.8779-6.4023C196.2168,255.0712,198.2705,253.744,201.1641,253.0585z"/>
	<path d="M252.3159,76.1788c-0.54,12.416,9.087,22.9164,21.5011,23.4564c11.3883,0.4953,21.158-7.5636,23.1149-18.4819
		c-2.0223-0.1914-4.151-0.5026-6.3352-0.9401c-11.4314-2.2897-20.1074-7.1846-19.6846-11.0358
		c1.3721,3.5226,10.166,6.5673,20.9609,7.0367c8.1462,0.3543,15.2983-0.8494,19.0369-2.9185
		c1.7056-0.944,2.7014-2.0679,2.7552-3.3065c0.172-3.9553-9.3063-7.5795-21.1693-8.0954c-0.4058-0.0176-0.8025-0.022-1.2031-0.032
		c-3.8855-4.1919-9.3582-6.9159-15.5205-7.1839C263.3582,54.1378,252.8557,63.7648,252.3159,76.1788z"/>
</g>
</svg>
